<svg width="128" height="128" viewBox="0 0 128 128" fill="none" xmlns="http://www.w3.org/2000/svg">
  <rect width="128" height="128" rx="24" fill="#2563EB"/>
  <path d="M32 52C32 49.7909 33.7909 48 36 48H40C42.2091 48 44 49.7909 44 52V92C44 94.2091 42.2091 96 40 96H36C33.7909 96 32 94.2091 32 92V52Z" fill="white"/>
  <path d="M52 36C52 33.7909 53.7909 32 56 32H60C62.2091 32 64 33.7909 64 36V92C64 94.2091 62.2091 96 60 96H56C53.7909 96 52 94.2091 52 92V36Z" fill="white"/>
  <path d="M72 68C72 65.7909 73.7909 64 76 64H80C82.2091 64 84 65.7909 84 68V92C84 94.2091 82.2091 96 80 96H76C73.7909 96 72 94.2091 72 92V68Z" fill="white"/>
  <path d="M92 52C92 49.7909 93.7909 48 96 48H100C102.209 48 104 49.7909 104 52V92C104 94.2091 102.209 96 100 96H96C93.7909 96 92 94.2091 92 92V52Z" fill="white"/>
</svg>